<svg width="17" height="22" viewBox="0 0 17 22" fill="none" xmlns="http://www.w3.org/2000/svg">
<path d="M16.9988 11.0104C16.9988 13.6981 17.0024 16.3852 16.9971 19.0729C16.9947 20.1955 16.5103 21.0543 15.5544 21.6305C15.1435 21.8782 14.6896 21.9976 14.2105 21.9976C10.4045 21.9993 6.59787 22.0023 2.79186 21.997C1.26805 21.9946 0.0117214 20.7277 0.00760619 19.1626C-0.00356375 15.0868 -0.00180008 11.011 0.00878197 6.93517C0.0111335 6.09946 0.32154 5.38433 0.943529 4.80403C2.32566 3.51512 3.70192 2.21909 5.06053 0.905233C5.46971 0.51084 5.8924 0.175249 6.45619 0.0713054C6.68605 0.0291338 6.9218 0.00359329 7.15519 0.00299932C9.46972 -0.00115844 11.7848 2.94948e-05 14.0994 0.000623461C15.7555 0.000623461 16.9959 1.24855 16.9977 2.9259C17.0012 5.62073 16.9988 8.31555 16.9988 11.0104ZM7.23573 15.2406C7.30275 15.3404 7.35272 15.4134 7.40093 15.4871C7.94473 16.324 8.48794 17.1615 9.03174 17.9984C9.45444 18.6488 10.1681 18.7094 10.6784 18.1314C11.2945 17.4335 11.9054 16.7303 12.5179 16.03C13.0241 15.4515 13.5344 14.8771 14.0347 14.2938C14.4962 13.7563 14.2869 13.0275 13.6302 12.8855C13.2557 12.8047 12.9371 12.9259 12.6825 13.2199C11.9036 14.1192 11.1223 15.0167 10.3422 15.9142C10.2763 15.9902 10.2075 16.0638 10.1264 16.1547C10.0576 16.0508 10.0047 15.9724 9.95356 15.8934C9.39741 15.0381 8.8442 14.181 8.28394 13.3286C7.93474 12.7976 7.2081 12.7133 6.776 13.1665C5.53202 14.4708 4.29745 15.7841 3.06288 17.0973C2.86652 17.3064 2.77011 17.5624 2.83066 17.8535C2.90591 18.2164 3.12284 18.4641 3.47499 18.5751C3.82949 18.6868 4.12755 18.5686 4.37329 18.309C4.8001 17.8588 5.21985 17.4014 5.64313 16.9477C6.16636 16.3858 6.69017 15.8251 7.23573 15.2406ZM7.12874 1.83895C6.78952 1.83063 6.51498 1.93398 6.27982 2.16266C5.43737 2.98055 4.5914 3.79428 3.7466 4.6098C3.2316 5.10754 2.71543 5.6041 2.20397 6.1054C2.00232 6.30319 1.83889 6.52593 1.83242 6.85855C1.93236 6.85855 2.01173 6.85499 2.09109 6.85915C3.1252 6.91082 4.16106 6.94646 5.1934 7.02071C6.30569 7.1003 7.1352 6.35428 7.13814 5.22871C7.14049 4.17442 7.13873 3.12073 7.13814 2.06644C7.13873 1.99338 7.13285 1.92151 7.12874 1.83895ZM11.796 3.29179C11.1499 3.29179 10.5044 3.28704 9.85832 3.29298C9.31217 3.29832 8.95767 3.66005 8.95473 4.19937C8.95179 4.72859 9.29041 5.10576 9.82892 5.11111C11.1423 5.12477 12.4562 5.1218 13.7701 5.1117C14.1864 5.10873 14.4774 4.87827 14.5885 4.52249C14.786 3.89288 14.3669 3.3001 13.7114 3.29298C13.0729 3.28644 12.4345 3.29179 11.796 3.29179ZM11.7907 6.9429C11.1593 6.9429 10.5285 6.94111 9.89712 6.94349C9.32216 6.94527 8.97119 7.27849 8.95532 7.83088C8.94003 8.36426 9.28042 8.75212 9.83363 8.75924C11.1399 8.77588 12.4462 8.76934 13.7525 8.76162C14.0947 8.75924 14.3821 8.62144 14.542 8.29061C14.8472 7.661 14.4221 6.95359 13.7284 6.94527C13.0823 6.93696 12.4368 6.94349 11.7907 6.9429Z" fill="black"/>
</svg>
